<svg width="277" height="232" viewBox="0 0 277 232" fill="none" xmlns="http://www.w3.org/2000/svg">
<mask id="mask0" mask-type="alpha" maskUnits="userSpaceOnUse" x="0" y="0" width="277" height="232">
<path d="M0 16C0 7.16344 7.16344 0 16 0H261C269.837 0 277 7.16344 277 16V232H0V16Z" fill="#C4C4C4"/>
</mask>
<g mask="url(#mask0)">
<path d="M0 16C0 7.16344 7.16344 0 16 0H261C269.837 0 277 7.16344 277 16V232H0V16Z" fill="#DAE7F1"/>
<path opacity="0.3" d="M701.635 -166.182C652.437 -134.837 588.594 -136.907 532.626 -153.159C476.707 -169.462 425.302 -198.485 370.838 -219.128C325.05 -236.441 277.306 -247.747 228.66 -252.794C159.2 -260.012 81.6165 -251.23 33.2207 -200.605C-20.6918 -144.175 -16.5292 -42.4202 41.7464 9.31525C71.3857 35.6625 110.253 48.5837 144.105 69.1265C177.957 89.6693 209.301 123.84 206.443 163.512C203.785 200.308 172.741 228.522 140.594 246.188C115.769 259.866 85.1772 274.807 82.1682 303.122C79.2594 330.53 104.987 351.981 129.511 364.195C209.602 404.019 308.249 403.666 388.04 363.186C416.526 348.751 442.654 329.571 472.494 318.315C550.881 288.788 637.241 318.517 720.191 329.369C790.653 338.555 862.219 333.81 930.876 315.438C971.949 304.384 1013.22 287.526 1042.11 256.081C1062.92 233.418 1075.86 204.749 1088.1 176.433C1101.09 146.2 1113.58 115.815 1125.51 85.1771C1132.68 66.8047 1139.81 48.0285 1141.61 28.3438C1144.97 -7.29059 1130.83 -42.5717 1111.52 -72.6539C1065.63 -144.125 988.449 -194.346 904.897 -207.116C821.346 -219.886 732.879 -194.952 668.034 -140.44" fill="#0066CC"/>
<path d="M249.623 150.692L249.673 150.591L249.572 150.49L248.921 150.086L249.071 150.187C248.118 149.632 246.965 149.884 246.313 150.793L246.062 151.146L231.919 171.638L229.462 175.273C221.989 173.001 209.903 182.541 203.734 187.992C203.333 188.345 202.982 188.648 202.681 188.951C202.18 187.84 201.879 187.134 201.879 187.134C201.578 190.465 189.842 195.512 187.084 197.33C185.83 198.087 184.426 198.541 182.972 198.692C183.373 185.973 173.594 172.547 173.594 172.547L149.671 141.909C148.769 136.357 149.621 130.704 152.129 125.657C152.329 125.253 152.53 124.849 152.731 124.496H152.831C151.928 127.07 151.427 129.745 151.326 132.521C151.377 134.591 153.282 144.635 155.99 144.231C156.542 144.282 157.044 144.029 157.345 143.575C159.501 141.051 159.652 136.812 159.551 132.875C159.501 134.036 159.401 135.196 159.15 136.307C159.3 133.026 158.949 129.543 158.949 127.07C158.949 126.111 158.949 125.102 159 124.143H159.3C159.3 124.496 159.3 124.9 159.3 125.304C159.3 124.9 159.3 124.496 159.3 124.143H159.601C164.968 123.133 169.983 120.812 174.195 117.329C176.302 117.228 178.258 116.319 179.712 114.755C180.213 116.471 179.862 118.389 178.659 119.752C181.868 119.6 184.577 117.076 185.83 114.149C186.884 111.171 187.184 107.941 186.733 104.761C186.282 101.632 186.031 98.4012 186.031 95.2214C186.232 93.5053 186.332 91.7891 186.332 90.0226C186.282 89.5178 186.181 88.9626 186.031 88.4579H186.131C186.733 88.4579 187.335 88.256 187.786 87.8017C189.09 86.7923 189.542 84.7733 189.893 83.2086C190.795 79.625 191.247 75.9909 191.146 72.3063C191.096 73.4167 190.946 74.5272 190.795 75.6376C191.096 71.3978 190.494 67.3094 187.736 64.281C185.83 62.1611 183.172 60.9497 180.615 59.7384C179.712 59.3851 178.91 58.8299 178.308 58.0728C177.856 57.1642 177.606 56.1548 177.606 55.1453C176.703 48.9875 170.936 44.6972 165.218 42.2745C157.846 39.0442 148.919 37.6814 141.898 41.5174C138.387 43.3849 135.729 46.3124 132.57 48.6847C128.658 51.7131 124.094 53.7825 119.882 56.4071C115.669 59.0318 111.757 62.363 109.651 66.9056C106.541 73.9215 108.899 81.8963 109.25 89.5178C109.851 101.531 104.937 114.098 95.2073 121.165C94.0538 121.871 93.0007 122.78 92.098 123.84C91.2454 124.95 91.0949 126.465 91.8472 127.676C92.3487 128.332 93.1511 128.685 93.7028 129.342C94.8061 130.603 94.6055 132.521 94.1542 134.137C92.7499 139.436 89.9415 144.231 86.0297 148.017C86.1801 149.279 87.7348 149.733 88.9886 149.935C92.2986 150.44 95.6085 150.641 98.9185 150.641H100.373C100.222 151.045 100.072 151.449 99.8714 151.853C98.0659 156.648 95.7088 163.966 96.5112 168.509C97.6647 175.626 101.376 208.08 99.5705 213.784C97.765 219.487 102.529 260.775 102.529 260.775C102.529 260.775 103.181 263.955 104.285 268.699C101.426 275.513 98.1161 283.084 96.4611 286.113C93.1511 292.169 94.8061 323.261 106.19 337.041C106.19 337.041 110.854 343.754 109.701 346.176C108.548 348.599 109.902 352.889 109.902 352.889L111.707 393.066C111.657 397.155 111.406 401.294 110.854 405.331C105.99 411.388 98.4671 420.221 94.9566 421.685C89.4901 423.906 48.7674 473.622 48.7674 473.622C48.7674 473.622 49.0683 474.228 49.7202 475.187L48.5668 476.499L40.7432 485.635L40.1414 486.342C38.687 486.039 28.9075 484.272 21.1842 483.717H20.432V483.566C17.7238 483.263 14.9655 483.313 12.3075 483.767C11.806 483.868 11.3045 484.121 10.9534 484.474C8.29541 487.755 6.89117 538.834 6.89117 538.834C6.89117 538.834 9.69964 564.424 18.5262 565.838C18.9776 565.989 19.429 566.09 19.9305 566.09H20.3317C26.6006 565.636 29.5093 562.002 30.8133 559.528C31.2145 558.771 31.5154 558.014 31.6658 557.207C31.6658 557.207 30.6628 552.664 33.371 546.355C36.1293 540.046 41.2447 528.992 41.2447 528.992C41.2447 528.992 50.5728 519.15 48.8677 514.355C49.1184 513.951 49.4193 513.547 49.7704 513.042C53.281 508.045 60.3523 498.152 66.0695 491.54C66.4206 491.086 66.8218 490.682 67.223 490.279C69.3293 491.187 71.4858 491.793 73.7426 492.146C73.7426 492.146 82.5191 488.714 85.7288 480.991C87.133 477.711 92.5493 471.906 98.3167 466.304L98.1161 467.767L97.9155 516.676C99.8212 517.989 101.777 519.099 103.883 520.008V521.168C103.934 528.134 103.482 535.099 102.63 542.014L102.479 543.124C101.777 542.62 101.125 542.418 100.724 542.822C98.9185 544.639 97.8152 556.298 97.7149 561.699C97.7149 561.85 97.7149 562.052 97.7149 562.254C97.414 567.604 94.4049 575.428 103.532 575.831C110.353 576.134 139.892 576.589 155.69 576.79C164.215 576.942 172.49 574.014 178.96 568.462C183.975 564.122 187.034 558.973 180.163 555.188C179.762 554.935 179.311 554.733 178.809 554.531L163.664 552.21L137.786 538.935C137.786 538.935 137.635 530.91 134.526 532.222C133.623 532.424 132.72 532.777 131.918 533.282C131.768 532.979 131.617 532.676 131.467 532.323C129.36 528.134 128.257 523.49 128.257 518.796C128.257 518.392 128.257 517.938 128.307 517.484C129.059 516.777 129.761 516.071 130.464 515.263C130.464 515.263 130.263 496.992 132.319 493.559C134.375 490.127 140.644 455.199 140.644 455.199C140.644 455.199 140.845 448.688 144.907 444.852C148.969 441.016 147.565 429.811 147.565 429.811C147.565 429.811 153.282 426.783 155.088 416.839C156.893 406.896 162.811 385.192 162.811 385.192C162.811 385.192 174.998 353.142 174.195 332.851C173.393 312.561 175.349 302.012 175.349 302.012L177.907 254.869V254.163C178.91 254.92 179.612 255.576 179.612 255.576C179.612 255.576 179.612 255.374 179.612 255.071C179.963 255.374 180.213 255.576 180.213 255.576C180.213 255.576 181.517 234.175 181.066 225.696C188.188 223.273 199.02 219.235 199.672 217.216C200.575 214.188 212.812 204.598 212.812 204.598C212.561 204.547 212.31 204.446 212.059 204.295C212.461 204.143 212.862 203.891 213.213 203.689C221.237 199.399 236.082 186.781 233.574 179.109L249.873 155.588C251.077 154.124 250.927 152.055 249.623 150.692Z" fill="url(#paint0_linear)"/>
<path d="M211.708 207.525C210.505 208.282 209.201 208.787 207.797 208.989C202.731 209.14 198.469 195.26 198.469 195.26C198.469 195.26 199.923 193.796 202.23 191.727C209.05 185.62 223.343 174.364 230.064 180.673C237.637 187.79 220.535 202.781 211.708 207.525Z" fill="#ECB4B6"/>
<path opacity="0.1" d="M211.708 207.525C210.505 208.282 209.201 208.787 207.797 208.989C202.731 209.14 198.469 195.26 198.469 195.26C198.469 195.26 199.923 193.796 202.23 191.727C203.885 195.563 208.499 205.658 211.708 207.525Z" fill="black"/>
<path d="M179.06 202.528C179.06 202.528 183.273 202.831 185.931 201.014C188.639 199.197 200.174 194.251 200.474 190.919C200.474 190.919 207.345 207.778 211.257 208.383C211.257 208.383 199.271 217.872 198.368 220.901C197.465 223.929 174.095 231.298 174.095 231.298L179.06 202.528Z" fill="#FF748E"/>
<path opacity="0.1" d="M179.06 202.528C179.06 202.528 183.273 202.831 185.931 201.014C188.639 199.197 200.174 194.251 200.474 190.919C200.474 190.919 207.345 207.778 211.257 208.383C211.257 208.383 199.271 217.872 198.368 220.901C197.465 223.929 174.095 231.298 174.095 231.298L179.06 202.528Z" fill="black"/>
<path d="M174.095 180.825V194.099L165.419 190.314L156.743 186.528L137.886 167.853C137.886 167.853 122.941 158.111 114.967 149.178C110.403 144.08 108.096 139.335 112.109 136.761C114.064 135.499 115.82 133.935 117.324 132.168C121.336 127.423 124.847 122.225 127.756 116.723C127.906 116.521 128.006 116.269 128.107 116.067C132.019 108.9 134.576 102.742 134.576 102.742C134.576 102.742 145.509 106.275 152.53 111.272C153.082 111.676 153.634 112.079 154.135 112.483C158.047 115.714 160.003 119.499 156.392 123.234C155.439 124.193 154.587 125.253 153.834 126.313C153.232 127.121 152.731 127.979 152.229 128.837C152.029 129.24 151.828 129.644 151.628 129.998C149.22 134.994 148.368 140.597 149.22 146.099L174.095 180.825Z" fill="#ECB4B6"/>
<path d="M172.54 86.2369C172.992 87.0445 173.644 87.7007 174.045 88.5082C174.747 90.2748 174.998 92.2433 174.697 94.1108C174.446 97.1393 174.647 100.117 175.299 103.095C175.9 105.72 177.054 108.294 177.154 111.02C177.305 114.856 175.299 118.389 173.393 121.72C175.499 121.669 177.455 120.71 178.859 119.146C179.361 120.862 179.01 122.729 177.856 124.092C180.966 123.941 183.674 121.468 184.827 118.54C185.88 115.562 186.181 112.332 185.73 109.152C185.279 106.023 185.028 102.893 185.078 99.7134C185.279 97.9973 185.379 96.2812 185.329 94.5651C185.028 91.1329 183.022 88.2054 180.966 85.4294L176.903 79.8268C176.603 79.3725 176.201 79.0192 175.75 78.7668C171.888 77.2022 171.437 84.3189 172.54 86.2369Z" fill="#464353"/>
<path opacity="0.1" d="M156.492 123.285C155.539 124.244 154.687 125.304 153.935 126.363C153.333 127.171 152.831 128.029 152.33 128.887C152.129 129.291 151.928 129.695 151.728 130.048C142.4 129.543 133.774 124.849 128.207 117.278C128.057 117.127 127.956 116.925 127.856 116.723C128.006 116.521 128.107 116.269 128.207 116.067C132.119 108.9 134.676 102.742 134.676 102.742C134.676 102.742 145.609 106.275 152.631 111.272C153.182 111.676 153.734 112.079 154.235 112.483C158.097 115.814 160.053 119.55 156.492 123.285Z" fill="black"/>
<path d="M184.878 97.3412C184.878 112.584 174.045 125.707 159.15 128.433C157.244 128.786 155.339 128.938 153.433 128.938H153.282C152.931 128.938 152.58 128.938 152.279 128.938C134.927 128.282 121.386 113.594 122.038 96.1803C122.69 78.7164 137.284 65.0886 154.586 65.7447C171.487 66.3504 184.827 80.3316 184.878 97.3412Z" fill="#ECB4B6"/>
<path opacity="0.1" d="M157.546 175.525C157.546 175.525 173.393 184.509 169.331 176.938L148.669 146.2L172.14 176.534C172.14 176.534 187.085 197.229 178.91 211.513C178.91 211.513 177.756 223.374 179.111 226.2C180.465 229.027 178.709 259.008 178.709 259.008C178.709 259.008 173.092 253.759 170.133 254.769C167.124 255.778 146.011 257.545 146.011 257.545L157.546 175.525Z" fill="black"/>
<path d="M158.147 175.525C158.147 175.525 173.995 184.509 169.933 176.938L149.27 146.2L172.741 176.534C172.741 176.534 187.686 197.229 179.511 211.513C179.511 211.513 178.358 223.374 179.712 226.2C181.066 229.027 179.311 259.008 179.311 259.008C179.311 259.008 173.744 253.759 170.735 254.769C167.726 255.778 146.562 257.595 146.562 257.595L158.147 175.525Z" fill="#464353"/>
<path opacity="0.1" d="M166.623 190.919C165.72 200.56 161.758 212.068 161.758 212.068C161.758 212.068 158.949 240.585 155.339 249.065C151.728 257.545 153.333 269.154 151.327 290.655C150.624 298.378 148.117 303.728 144.807 307.312C139.29 313.167 131.467 314.428 125.298 314.075L123.844 313.974C113.864 312.965 104.285 264.56 104.285 264.56C104.285 264.56 99.721 223.374 101.476 217.721C103.232 212.068 99.721 179.967 98.5174 172.951C97.7651 168.509 100.022 161.241 101.827 156.496C102.881 153.771 103.733 151.802 103.733 151.802C103.733 151.802 107.143 140.95 112.71 135.348C114.265 133.733 116.421 132.824 118.628 132.824C121.236 132.925 123.794 133.733 126 135.146C126.101 135.196 126.151 135.247 126.251 135.297C126.251 135.297 162.611 172.648 165.971 181.329C166.873 183.752 166.974 187.235 166.623 190.919Z" fill="black"/>
<path d="M165.419 190.364C164.466 200.005 160.555 211.513 160.555 211.513C160.555 211.513 157.746 240.03 154.185 248.51C150.575 256.939 152.179 268.598 150.173 290.1C149.471 297.822 146.964 303.173 143.654 306.756C138.137 312.611 130.314 313.873 124.145 313.52L122.691 313.419C112.71 312.409 103.132 264.005 103.132 264.005C103.132 264.005 98.5678 222.819 100.323 217.216C102.078 211.613 98.5177 179.462 97.3141 172.395C96.5618 167.954 98.8186 160.686 100.624 155.941C101.677 153.215 102.53 151.297 102.53 151.297C102.53 151.297 105.94 140.446 111.507 134.843C113.062 133.228 115.218 132.319 117.425 132.37C120.033 132.471 122.59 133.278 124.797 134.692L125.048 134.843C125.048 134.843 161.407 172.194 164.767 180.875C165.67 183.146 165.82 186.629 165.419 190.364Z" fill="#FF748E"/>
<path opacity="0.1" d="M160.504 233.569C160.504 233.569 173.393 233.721 175.299 237.809C177.255 241.898 164.616 231.954 160.504 233.569Z" fill="black"/>
<path opacity="0.1" d="M142.099 216.106C142.099 216.106 140.945 256.939 136.482 262.239C132.018 267.538 142.099 216.106 142.099 216.106Z" fill="black"/>
<path opacity="0.1" d="M184.677 93.8079C184.226 93.1013 183.825 92.3947 183.524 91.6376C181.317 87.0445 175.65 89.3158 171.538 91.4862L169.331 94.3632C168.328 95.5745 167.476 96.8868 166.824 98.3001C166.422 99.461 166.021 100.622 165.771 101.833C165.219 103.852 164.366 105.821 163.614 107.789C161.106 114.401 159.602 121.367 159.201 128.433C157.295 128.786 155.389 128.938 153.483 128.938H153.333V128.786C153.534 127.979 153.734 127.171 153.885 126.363C154.737 121.821 154.838 117.127 154.186 112.534C154.186 112.433 154.186 112.332 154.186 112.231C154.035 111.221 153.835 110.161 153.734 109.152C153.333 109.859 152.982 110.565 152.581 111.272C150.073 115.966 147.465 120.66 142.701 122.679C140.795 123.436 138.739 123.89 136.683 124.042C134.125 124.193 131.618 124.597 129.21 125.303C128.358 125.556 127.605 126.01 127.054 126.616C126.402 127.575 126.001 128.736 125.951 129.897C125.7 131.461 125.299 132.975 124.797 134.49C122.641 140.042 119.331 145.039 115.018 149.178L113.914 150.237C112.059 152.155 109.852 153.67 107.445 154.73C105.238 155.487 102.931 155.84 100.574 155.739C101.627 153.014 102.48 151.096 102.48 151.096C102.48 151.096 105.89 140.244 111.457 134.641C113.012 133.026 115.168 132.117 117.375 132.168C121.537 127.221 125.148 121.77 128.157 116.016C117.876 101.934 120.835 82.1485 134.827 71.8014C148.819 61.4543 168.479 64.4323 178.76 78.5144C182.019 83.0571 184.076 88.3568 184.677 93.8079Z" fill="black"/>
<path d="M186.683 69.1264C184.828 67.057 182.22 65.8456 179.712 64.6343C178.809 64.281 178.057 63.7257 177.455 62.9686C177.004 62.0601 176.803 61.1011 176.753 60.0916C175.901 53.9843 170.234 49.7446 164.617 47.2714C157.395 44.0915 148.669 42.6782 141.748 46.5142C138.388 48.3818 135.73 51.2588 132.67 53.631C128.809 56.609 124.345 58.6784 120.233 61.303C116.121 63.9276 112.159 67.1579 110.203 71.7006C107.194 78.6155 109.45 86.5398 109.852 94.1109C110.453 106.023 105.639 118.439 96.1102 125.506C94.9568 126.212 93.9537 127.121 93.1012 128.181C92.2486 129.291 92.1483 130.755 92.8504 131.966C93.3519 132.622 94.1042 132.976 94.6558 133.581C95.7592 134.843 95.5084 136.761 95.1072 138.376C93.7531 143.575 90.9447 148.37 87.1332 152.105C87.2836 153.367 88.7882 153.821 89.9918 154.023C93.2015 154.528 96.5114 154.73 99.7713 154.73C104.937 155.134 110.002 153.115 113.412 149.178C119.23 143.676 124.145 136.812 125.449 128.887C125.499 127.726 125.9 126.565 126.552 125.606C127.154 125.001 127.906 124.546 128.708 124.294C133.072 122.78 138.037 123.537 142.199 121.669C147.666 119.348 150.324 113.493 153.182 108.092C153.283 109.102 153.483 110.161 153.634 111.171C154.486 116.673 154.185 122.326 152.831 127.726C152.029 130.805 150.925 133.834 151.026 136.963C151.076 139.285 153.433 151.55 156.542 147.865C159.652 144.181 158.498 136.105 158.498 131.562C158.498 123.032 160.053 114.603 163.062 106.679C163.814 104.71 164.667 102.742 165.218 100.723C165.519 99.5116 165.87 98.3507 166.272 97.1898C166.924 95.7765 167.776 94.4642 168.829 93.2528L171.036 90.3758C175.199 88.155 180.816 85.9341 183.022 90.5272C183.875 92.2938 184.326 94.2623 186.533 92.5462C187.837 91.5367 188.238 89.5178 188.589 88.0036C189.893 81.4925 191.046 73.9719 186.683 69.1264Z" fill="#464353"/>
<path opacity="0.1" d="M144.556 179.765C143.704 158.111 113.613 153.67 106.592 174.112C106.542 174.263 106.492 174.414 106.441 174.515C101.828 188.396 103.834 223.475 103.834 223.475C103.834 223.475 104.435 247.046 106.642 254.869C108.849 262.693 115.017 285.204 115.017 288.838C115.017 292.472 120.734 306.302 123.142 307.312C125.549 308.321 126.753 316.144 127.354 317.558C127.956 318.971 129.661 337.242 129.661 337.242C129.661 337.242 152.229 335.829 152.631 332.195C153.032 328.561 147.615 310.895 147.615 310.895C147.615 310.895 143.654 303.677 143.152 297.823C142.651 292.018 139.541 289.343 140.143 285.356C140.745 281.318 138.338 279.349 138.338 276.725C138.338 274.1 136.532 267.084 136.532 267.084C136.532 267.084 132.721 264.056 133.322 260.472C133.924 256.888 127.956 249.62 129.511 246.996C131.116 244.371 131.517 237.961 131.517 237.961C131.517 237.961 133.523 209.039 134.927 201.216C136.331 193.393 144.506 180.724 144.506 180.724C144.506 180.724 144.556 180.37 144.556 179.765Z" fill="black"/>
<path opacity="0.1" d="M143.603 306.706C138.087 312.561 130.263 313.823 124.095 313.469C123.393 310.744 122.339 307.362 120.785 306.706C118.377 305.696 112.66 291.816 112.66 288.232C112.66 284.649 106.492 262.087 104.285 254.264C102.078 246.44 101.477 222.869 101.477 222.869C101.477 222.869 99.4705 187.739 104.084 173.91C104.084 173.758 104.185 173.657 104.235 173.506C111.206 153.014 141.347 157.506 142.199 179.159C142.199 179.815 142.199 180.168 142.199 180.168C142.199 180.168 134.075 192.837 132.62 200.661C131.166 208.484 129.26 237.405 129.26 237.405C129.26 237.405 128.859 243.816 127.254 246.44C125.649 249.065 131.667 256.283 131.066 259.917C130.464 263.5 134.275 266.529 134.275 266.529C134.275 266.529 136.081 273.545 136.081 276.169C136.081 278.794 138.488 280.762 137.886 284.8C137.284 288.838 140.494 291.412 140.996 297.267C141.297 300.548 142.249 303.728 143.603 306.706Z" fill="black"/>
<path d="M143.353 179.159C142.5 157.506 112.409 153.064 105.388 173.506L105.238 173.91C100.624 187.79 102.63 222.869 102.63 222.869C102.63 222.869 103.232 246.44 105.438 254.264C107.645 262.087 113.814 284.598 113.814 288.233C113.814 291.867 119.531 305.696 121.938 306.706C124.345 307.715 125.549 315.539 126.151 316.952C126.753 318.365 128.458 336.637 128.458 336.637C128.458 336.637 151.026 335.223 151.427 331.64C151.828 328.056 146.462 310.34 146.462 310.34C146.462 310.34 142.5 303.122 141.948 297.267C141.447 291.463 138.237 288.838 138.839 284.8C139.441 280.762 137.034 278.743 137.034 276.169C137.034 273.595 135.228 266.529 135.228 266.529C135.228 266.529 131.417 263.5 132.019 259.917C132.62 256.283 126.652 249.065 128.207 246.44C129.812 243.816 130.213 237.406 130.213 237.406C130.213 237.406 132.219 208.484 133.623 200.61C135.028 192.787 143.202 180.118 143.202 180.118C143.202 180.118 143.353 179.815 143.353 179.159Z" fill="#FF748E"/>
<path opacity="0.1" d="M107.344 244.573C107.796 244.119 118.728 243.664 121.437 237.557C124.095 231.45 107.344 244.573 107.344 244.573Z" fill="black"/>
<g opacity="0.1">
<path opacity="0.1" d="M94.9066 133.48C95.1574 133.783 95.358 134.187 95.5084 134.591C95.9598 133.228 95.7592 131.714 94.9066 130.502C94.355 129.897 93.6027 129.543 93.1012 128.887C93.1012 128.887 93.051 128.786 93.0009 128.736C92.4492 129.745 92.4994 130.957 93.1012 131.916C93.6528 132.521 94.355 132.875 94.9066 133.48Z" fill="black"/>
<path opacity="0.1" d="M110.102 94.4642C110.102 93.3033 110.102 92.1424 110.102 91.032C109.902 86.9436 109.149 82.7038 108.949 78.6154C108.698 83.6628 109.801 88.9121 110.102 94.0604C110.102 94.1613 110.102 94.3128 110.102 94.4642Z" fill="black"/>
<path opacity="0.1" d="M156.793 144.786C154.035 148.067 151.828 138.629 151.377 134.944C151.277 135.6 151.277 136.256 151.277 136.913C151.327 139.234 153.684 151.499 156.793 147.815C158.9 145.342 159.1 141.102 159 137.215C158.799 140.143 158.348 142.919 156.793 144.786Z" fill="black"/>
<path opacity="0.1" d="M153.884 111.07C154.135 112.635 154.285 114.25 154.335 115.815C154.436 113.19 154.285 110.616 153.884 108.042C153.734 107.032 153.533 105.972 153.433 104.963C150.574 110.363 147.916 116.168 142.45 118.54C138.237 120.357 133.322 119.651 128.959 121.165C128.106 121.417 127.354 121.871 126.802 122.477C126.15 123.436 125.749 124.597 125.699 125.758C124.395 133.682 119.43 140.547 113.613 146.048C110.202 149.985 105.137 152.004 99.9715 151.6C96.7117 151.6 93.4519 151.348 90.192 150.894C89.6905 150.793 89.189 150.692 88.7377 150.49C88.2863 150.995 87.7848 151.499 87.3334 151.954C87.4839 153.215 88.9884 153.67 90.2422 153.872C93.4519 154.376 96.7117 154.578 100.022 154.578C105.187 154.982 110.253 152.963 113.663 149.026C119.48 143.525 124.395 136.66 125.749 128.736C125.799 127.575 126.201 126.414 126.853 125.455C127.454 124.849 128.207 124.345 129.009 124.143C133.372 122.628 138.337 123.386 142.5 121.518C147.966 119.196 150.624 113.341 153.483 107.941C153.533 109.001 153.734 110.01 153.884 111.07Z" fill="black"/>
<path opacity="0.1" d="M188.84 84.8742C188.489 86.3884 188.087 88.4073 186.783 89.4168C184.577 91.1329 184.176 89.1644 183.273 87.3979C181.066 82.8048 175.399 85.076 171.287 87.2464L169.08 90.1234C168.077 91.3348 167.225 92.6471 166.573 94.0604C166.171 95.2213 165.82 96.3821 165.519 97.5935C164.918 99.6125 164.115 101.581 163.363 103.549C160.354 111.524 158.799 119.953 158.799 128.433C158.799 128.837 158.799 129.241 158.799 129.695C159 121.77 160.554 113.947 163.363 106.578C164.115 104.609 164.968 102.641 165.519 100.622C165.77 99.4106 166.121 98.2497 166.573 97.0888C167.225 95.6755 168.077 94.3632 169.08 93.1518L171.287 90.2748C175.449 88.054 181.066 85.8332 183.273 90.4263C184.125 92.1929 184.577 94.1613 186.783 92.4452C188.087 91.4358 188.489 89.4168 188.84 87.9026C189.742 84.3694 190.093 80.7353 189.993 77.1012C189.793 79.7259 189.441 82.3 188.84 84.8742Z" fill="black"/>
</g>
<path d="M216.072 198.945L216.673 199.348C215.52 198.591 215.219 197.027 215.971 195.916L216.021 195.866L243.755 155.386C244.507 154.275 246.062 153.972 247.165 154.73L246.563 154.275C248.369 155.537 248.82 158.01 247.567 159.827L221.538 197.885C220.334 199.702 217.877 200.156 216.072 198.945Z" fill="#464353"/>
<path d="M246.915 154.477L247.366 154.78L216.824 199.399L216.373 199.096C215.47 198.44 215.219 197.178 215.871 196.27L244.106 154.982C244.708 154.074 245.962 153.821 246.915 154.477Z" fill="#9F9EFF"/>
<path d="M243.404 160.484L243.504 160.534C243.605 160.585 243.605 160.736 243.554 160.787L241.298 164.118C241.248 164.219 241.097 164.219 241.047 164.168L240.947 164.118C240.846 164.067 240.846 163.916 240.896 163.865L243.153 160.534C243.203 160.484 243.304 160.433 243.404 160.484Z" fill="#464353"/>
</g>
<defs>
<linearGradient id="paint0_linear" x1="128.79" y1="576.928" x2="128.79" y2="39.2347" gradientUnits="userSpaceOnUse">
<stop stop-color="#808080" stop-opacity="0.25"/>
<stop offset="0.54" stop-color="#808080" stop-opacity="0.12"/>
<stop offset="1" stop-color="#808080" stop-opacity="0.1"/>
</linearGradient>
</defs>
</svg>
